<svg width="35" height="38" viewBox="0 0 35 38" fill="none" xmlns="http://www.w3.org/2000/svg">
  <g opacity="0.3">
    <path d="M30.766 12.6223V5.52492C30.766 1.44498 27.9091 0 25.2228 0H9.27535C6.58902 0 3.73213 1.44498 3.73213 5.52492V12.6223C1.77069 13.1323 0.320923 14.8748 0.320923 16.9997V28.3896C0.320923 31.747 2.58085 33.0645 4.79814 33.192V36.082C4.79814 36.9319 5.48038 37.6119 6.33318 37.6119H7.91087C8.76367 37.6119 9.44591 36.9319 9.44591 36.082V33.192H25.0948V36.082C25.0948 36.9319 25.7771 37.6119 26.6299 37.6119H28.2076C29.0604 37.6119 29.7426 36.9319 29.7426 36.082V33.192C33.0259 33.022 34.2198 30.642 34.2198 28.3896V16.9572C34.1346 14.8748 32.6848 13.0898 30.766 12.6223ZM5.26718 5.52492C5.26718 2.03997 7.78295 1.48748 9.27535 1.48748H25.2228C26.7152 1.48748 29.2309 1.99747 29.2309 5.48242V12.4523C26.9284 12.6648 25.0948 14.5773 25.0948 16.9572V18.0197H9.40327V16.9572C9.40327 14.5773 7.56975 12.6648 5.26718 12.4523V5.52492ZM25.0522 19.5497V24.8196H9.40327V19.5497H25.0522ZM7.91087 36.082H6.33318V33.192H7.91087V36.082ZM28.1649 36.082H26.5872V33.192H28.1649V36.082ZM32.6848 28.3896H32.6422C32.6422 29.8771 32.0878 31.7045 29.3162 31.7045H28.1649H26.5872H7.91087H6.33318H5.1819C3.68949 31.7045 1.85597 31.152 1.85597 28.3896V16.9572C1.85597 15.2998 3.22045 13.9398 4.88342 13.9398C6.54638 13.9398 7.91087 15.2998 7.91087 16.9572V25.5846C7.91087 26.0096 8.25199 26.3496 8.67839 26.3496H25.8624C26.2888 26.3496 26.6299 26.0096 26.6299 25.5846V16.9572C26.6299 15.2998 27.9944 13.9398 29.6573 13.9398C31.3203 13.9398 32.6848 15.2998 32.6848 16.9572V28.3896Z" fill="black"/>
  </g>
</svg>
