<svg xmlns="http://www.w3.org/2000/svg" xmlns:xlink="http://www.w3.org/1999/xlink"><symbol id="icon-heart" viewBox="0 0 15 15">
<path d="M7.5 14.0125L6.4125 13.0225C2.55 9.52 0 7.21 0 4.375C0 2.065 1.815 0.25 4.125 0.25C5.43 0.25 6.6825 0.8575 7.5 1.8175C8.3175 0.8575 9.57 0.25 10.875 0.25C13.185 0.25 15 2.065 15 4.375C15 7.21 12.45 9.52 8.5875 13.03L7.5 14.0125Z" fill="#A7A7A7"/>
</symbol><symbol id="icon-location" viewBox="0 0 32 32">
<path d="M7.5538 18.5638L21.9469 8.59494C22.4539 8.24375 23.0657 8.71826 22.8517 9.29672L16.7761 25.717C16.5701 26.2738 15.8132 26.323 15.6134 25.7927L13.6836 20.6718C13.6067 20.4677 13.4265 20.3279 13.2097 20.3042L7.76977 19.7088C7.20635 19.6471 7.06576 18.9018 7.5538 18.5638Z" fill="#A7A7A7"/>
<rect x="0.5" y="0.5" width="31" height="31" rx="15.5" stroke="#A7A7A7"/>
</symbol><symbol id="icon-logo" viewBox="0 0 88 24">
<path d="M7.851 17.4978H10.3601C10.1874 18.6703 9.66941 19.6114 8.80607 20.3213C7.95352 21.0313 6.86355 21.3862 5.53617 21.3862C3.7987 21.3862 2.43894 20.843 1.45689 19.7566C0.485629 18.6595 0 17.2128 0 15.4165C0 13.6202 0.491025 12.1788 1.47307 11.0924C2.45512 9.99529 3.80949 9.44672 5.53617 9.44672C6.7988 9.44672 7.851 9.77479 8.69276 10.4309C9.53451 11.0763 10.0525 11.9368 10.2468 13.0124H7.7215C7.45171 12.0659 6.72326 11.5926 5.53617 11.5926C4.54333 11.5926 3.78251 11.9529 3.25371 12.6736C2.73571 13.3835 2.47671 14.2978 2.47671 15.4165C2.47671 16.5351 2.73571 17.4548 3.25371 18.1755C3.78251 18.8854 4.54333 19.2403 5.53617 19.2403C6.1513 19.2403 6.65851 19.0897 7.05781 18.7886C7.46789 18.4766 7.73229 18.0464 7.851 17.4978Z" fill="#222222"/>
<path d="M22.012 9.65647V11.7701H18.4184V21.1765H16.0064V11.7701H12.4127V9.65647H22.012Z" fill="#222222"/>
<path d="M28.6894 14.8195H29.1427L31.587 9.65647H34.0313L28.4952 21.1765H26.0832L27.7343 17.7237L23.4608 9.65647H25.9861L28.6894 14.8195Z" fill="#222222"/>
<path d="M45.1637 19.0306H46.8149V24H44.4677V21.1765H36.8757V24H34.5285V19.0306H35.7263C36.6436 17.4064 37.1023 15.126 37.1023 12.1896V9.65647H45.1637V19.0306ZM42.8165 19.0306V11.8024H39.3362V12.8188C39.3362 15.5079 38.9477 17.5785 38.1707 19.0306H42.8165Z" fill="#222222"/>
<path d="M49.5559 9.65647H51.806V17.6914H52.2268L56.3871 9.65647H59.6408V21.1765H57.3745V12.964H56.9536L52.6963 21.1765H49.5559V9.65647Z" fill="#222222"/>
<path d="M64.3366 21.1765V9.65647H66.7485V14.158H69.4843L71.6048 9.65647H74.0977L71.5077 15.2551L74.2434 21.1765H71.7505L69.5004 16.3361H66.7485V21.1765H64.3366Z" fill="#222222"/>
<path d="M85.5557 21.1765L84.6168 18.0625H80.2137L79.2749 21.1765H76.8953L80.5699 9.65647H84.3092L88 21.1765H85.5557ZM82.0429 11.9637L80.8289 15.965H83.9693L82.7552 11.9637H82.0429Z" fill="#222222"/>
<path d="M38.1583 0H35.629L32.5938 6.05042H35.1231L38.1583 0Z" fill="#222222"/>
</symbol><symbol id="icon-search" viewBox="0 0 17 17">
<path fill-rule="evenodd" clip-rule="evenodd" d="M1.7 7.64999C1.7 4.3639 4.36391 1.7 7.65001 1.7C10.9361 1.7 13.6 4.3639 13.6 7.64999C13.6 9.25281 12.9662 10.7076 11.9356 11.7774C11.9063 11.7999 11.8781 11.8246 11.8513 11.8515C11.8245 11.8783 11.7998 11.9065 11.7773 11.9358C10.7075 12.9663 9.25274 13.6 7.65001 13.6C4.36391 13.6 1.7 10.9361 1.7 7.64999ZM12.4249 13.6272C11.1162 14.674 9.45622 15.3 7.65001 15.3C3.42502 15.3 0 11.875 0 7.64999C0 3.42502 3.42502 0 7.65001 0C11.875 0 15.3 3.42502 15.3 7.64999C15.3 9.4563 14.674 11.1164 13.627 12.4251L16.7509 15.549C17.0828 15.8809 17.0828 16.4191 16.7509 16.751C16.4189 17.083 15.8807 17.083 15.5488 16.751L12.4249 13.6272Z" fill="#A7A7A7"/>
</symbol></svg>